<?xml version="1.0" encoding="UTF-8"?>
<svg version="1.1" xmlns="http://www.w3.org/2000/svg" width="400" height="400">
<path d="M0 0 C132 0 264 0 400 0 C400 132 400 264 400 400 C268 400 136 400 0 400 C0 268 0 136 0 0 Z " fill="#ECF3F9" transform="translate(0,0)"/>
<path d="M0 0 C0.26750959 8.5602273 -0.57134037 16.97288763 -1.4609375 25.47265625 C-1.61349111 26.96459405 -1.76563332 28.45657396 -1.91738892 29.94859314 C-2.23550154 33.06622956 -2.55684198 36.18350891 -2.88085938 39.30053711 C-3.29078057 43.24406996 -3.69530684 47.18812987 -4.09767723 51.13243961 C-4.48776891 54.95436655 -4.88045196 58.77602595 -5.2734375 62.59765625 C-5.34561871 63.30123827 -5.41779991 64.00482029 -5.49216843 64.72972298 C-6.13870904 71.01630549 -6.78924034 77.30121871 -7.54595947 83.57565308 C-7.63751627 84.33561049 -7.72907307 85.09556791 -7.82340431 85.87855434 C-7.99953036 87.32756204 -8.17828519 88.77625375 -8.36023521 90.22454166 C-9.86389153 99.79456936 -9.86389153 99.79456936 -8 109 C-7.58685744 113.6478538 -8.21012684 116.24440152 -11 120 C-11.99 120.495 -11.99 120.495 -13 121 C-12.34215037 124.29680965 -11.10579427 126.84117922 -9.4375 129.75 C-8.625 131.16666667 -7.8125 132.58333333 -7 134 C-4.12743611 127.06839889 -1.62420147 120.07405988 0.6875 112.9375 C1.29283753 111.07072536 1.90076566 109.20478809 2.51171875 107.33984375 C2.77428467 106.52894287 3.03685059 105.71804199 3.30737305 104.88256836 C4 103 4 103 5 102 C6.66617115 101.95936168 8.33388095 101.957279 10 102 C12.83744381 108.69707236 15.31379308 115.52428507 17.75 122.375 C18.22675171 123.69516113 18.22675171 123.69516113 18.71313477 125.04199219 C19.00889404 125.88149414 19.30465332 126.72099609 19.609375 127.5859375 C19.87717773 128.3392334 20.14498047 129.0925293 20.42089844 129.86865234 C21 132 21 132 21 136 C19.35 136 17.7 136 16 136 C15.34 133.36 14.68 130.72 14 128 C9.71 128 5.42 128 1 128 C0.67 129.98 0.34 131.96 0 134 C-0.33 134.66 -0.66 135.32 -1 136 C-4.96 136 -8.92 136 -13 136 C-15.475 159.265 -15.475 159.265 -18 183 C-19.65 183 -21.3 183 -23 183 C-23 192.9 -23 202.8 -23 213 C-24.32 213.33 -25.64 213.66 -27 214 C-27 214.99 -27 215.98 -27 217 C-27.82987427 217.24109497 -27.82987427 217.24109497 -28.67651367 217.48706055 C-34.41300324 219.26022364 -39.22874861 221.65045178 -44.3125 224.8125 C-49.01170928 227.65697262 -53.66839779 230.4321698 -58.625 232.8125 C-65.50179682 236.14784015 -72.0877707 239.9754651 -78.72485352 243.7578125 C-85.95558275 247.86873116 -93.23899216 251.86947214 -100.5625 255.8125 C-107.78465552 259.70411909 -114.96355391 263.64045001 -122.06640625 267.74609375 C-127.80499907 271.05186667 -133.59506725 274.26728271 -139.375 277.5 C-140.51316162 278.13671631 -141.65132324 278.77343262 -142.82397461 279.42944336 C-145.54904653 280.95344581 -148.27437423 282.47698838 -151 284 C-153.54572994 280.92762934 -154.89837844 278.02498726 -156.22973633 274.27392578 C-156.64532303 273.11413712 -157.06090973 271.95434845 -157.48908997 270.75941467 C-157.93683318 269.48808113 -158.38447742 268.21671272 -158.83203125 266.9453125 C-159.304458 265.61979828 -159.77755024 264.29452109 -160.25126648 262.96946716 C-161.25648277 260.15402113 -162.25757903 257.33715913 -163.25537109 254.51907349 C-164.81933529 250.10251793 -166.39283711 245.68940381 -167.96875 241.27709961 C-168.22925329 240.54769134 -168.48975658 239.81828306 -168.75815392 239.06677151 C-169.28222871 237.59945156 -169.80633937 236.13214442 -170.3304863 234.66485023 C-171.11251544 232.47480088 -171.89370085 230.28445209 -172.67471313 228.09403992 C-176.55139311 217.22595315 -180.48946755 206.38191942 -184.5 195.5625 C-185.03664128 194.11328872 -185.57326251 192.66407003 -186.10986328 191.21484375 C-186.90522561 189.06711657 -187.70069766 186.91943069 -188.4967041 184.77194214 C-192.42158136 174.17522125 -196.28998315 163.55769263 -200.16699219 152.94338989 C-200.79088298 151.23536463 -201.4148875 149.5273809 -202.03901672 147.81944275 C-202.60312965 146.27566556 -203.16694746 144.73178049 -203.73039246 143.1877594 C-205.4619545 138.4489217 -207.22496805 133.72272937 -209 129 C-210.93202026 123.74171805 -211.5826359 118.7715982 -212.14453125 113.21875 C-213.04638798 109.82546257 -214.37469253 108.25257247 -216.70092773 105.69677734 C-219.21847781 102.40849074 -220.312267 98.44904054 -221.625 94.5625 C-222.19879399 92.91736544 -222.7742892 91.27282316 -223.3515625 89.62890625 C-223.76390137 88.44965576 -223.76390137 88.44965576 -224.18457031 87.24658203 C-225.83991178 82.68596759 -227.82936751 78.34126498 -230 74 C-230.33 81.59 -230.66 89.18 -231 97 C-232.98 97 -234.96 97 -237 97 C-237 85.45 -237 73.9 -237 62 C-235.68 62 -234.36 62 -233 62 C-234.98 56.555 -234.98 56.555 -237 51 C-233.78798579 49.71519432 -231.31945205 48.73822074 -228.05891418 48.0473175 C-227.31024582 47.88640121 -226.56157745 47.72548492 -225.79022217 47.55969238 C-224.98264465 47.39086548 -224.17506714 47.22203857 -223.34301758 47.0480957 C-222.48006577 46.86397629 -221.61711395 46.67985687 -220.72801208 46.49015808 C-217.86774969 45.88105014 -215.00617403 45.27836786 -212.14453125 44.67578125 C-210.12554888 44.24736562 -208.1066446 43.81858185 -206.08781433 43.38945007 C-200.7472781 42.25541521 -195.40558101 41.12694003 -190.06365967 39.99945068 C-185.80784518 39.10022242 -181.55288197 38.19700755 -177.29796028 37.29356575 C-157.19886206 33.02625718 -137.09332267 28.79439852 -116.96369362 24.67339516 C-107.28592776 22.69121922 -97.6268265 20.64560445 -87.99438477 18.45330811 C-74.12739961 15.30145051 -60.22425253 12.35620129 -46.2902832 9.51708984 C-44.9083512 9.23542359 -43.52643377 8.95368586 -42.14453125 8.671875 C-41.13124504 8.46523727 -41.13124504 8.46523727 -40.0974884 8.25442505 C-29.58038205 6.10326502 -19.08974674 3.82609285 -8.59838867 1.55322266 C-1.30317741 0 -1.30317741 0 0 0 Z " fill="#FDFD0B" transform="translate(297,60)"/>
<path d="M0 0 C0 19.47 0 38.94 0 59 C-12.37935202 52.24762617 -12.37935202 52.24762617 -17.62890625 48.72265625 C-18.1889183 48.34821884 -18.74893036 47.97378143 -19.32591248 47.58799744 C-21.07441523 46.41719188 -22.81844338 45.23991499 -24.5625 44.0625 C-25.72824247 43.28149317 -26.89425727 42.50089267 -28.06054688 41.72070312 C-34.76383917 37.22787892 -41.41077474 32.6588871 -48 28 C-44.46015964 25.03052173 -40.86860649 22.65414968 -36.84375 20.390625 C-36.26016724 20.06012146 -35.67658447 19.72961792 -35.07531738 19.38909912 C-33.21920155 18.33855264 -31.35989943 17.293831 -29.5 16.25 C-27.07112846 14.88335495 -24.64414175 13.5134359 -22.21875 12.140625 C-21.32470459 11.63577576 -21.32470459 11.63577576 -20.41259766 11.12072754 C-15.01936424 8.05499636 -9.76643235 4.78408275 -4.52929688 1.45996094 C-2 0 -2 0 0 0 Z " fill="#FEFE0D" transform="translate(304,283)"/>
<path d="M0 0 C16 0 16 0 22 5 C23.41000664 7.82001327 23.24548451 9.87007255 23 13 C20.73529412 17.63235294 20.73529412 17.63235294 18 19 C18.65784963 22.29680965 19.89420573 24.84117922 21.5625 27.75 C22.375 29.16666667 23.1875 30.58333333 24 32 C26.87256389 25.06839889 29.37579853 18.07405988 31.6875 10.9375 C32.29283753 9.07072536 32.90076566 7.20478809 33.51171875 5.33984375 C33.77428467 4.52894287 34.03685059 3.71804199 34.30737305 2.88256836 C35 1 35 1 36 0 C37.66617115 -0.04063832 39.33388095 -0.042721 41 0 C43.83744381 6.69707236 46.31379308 13.52428507 48.75 20.375 C49.06783447 21.25510742 49.38566895 22.13521484 49.71313477 23.04199219 C50.00889404 23.88149414 50.30465332 24.72099609 50.609375 25.5859375 C50.87717773 26.3392334 51.14498047 27.0925293 51.42089844 27.86865234 C52 30 52 30 52 34 C50.35 34 48.7 34 47 34 C46.34 31.36 45.68 28.72 45 26 C40.71 26 36.42 26 32 26 C31.67 27.98 31.34 29.96 31 32 C30.67 32.66 30.34 33.32 30 34 C25.79251915 34.74615424 22.16995907 35.04898099 18 34 C14.65829349 30.30915997 11 25.1683653 11 20 C9.02 20 7.04 20 5 20 C5 24.62 5 29.24 5 34 C3.35 34 1.7 34 0 34 C0 22.78 0 11.56 0 0 Z " fill="#5C6D77" transform="translate(266,162)"/>
<path d="M0 0 C4.66995042 2.76510222 7.37140796 5.79309306 9 11 C9.86589288 18.29967832 9.61980566 25.03155542 5 31 C1.77516833 33.93166515 -0.69940347 35.23231887 -5 35.4375 C-9.70753597 35.14159774 -13.08540521 33.92469819 -16.48046875 30.51171875 C-21.16523487 24.38346727 -20.97002413 17.40092483 -20 10 C-15.90416842 1.20154698 -9.21359403 -2.45394743 0 0 Z " fill="#5B6C83" transform="translate(77,162)"/>
<path d="M0 0 C3.68082072 1.67245058 5.58285212 4.40208804 7.875 7.6875 C10.09528028 14.22499192 9.75059227 20.8792819 7.05859375 27.2421875 C4.90086116 30.8251383 1.72389025 33.13805488 -2 35 C-8.10685229 35.50890436 -11.12959772 35.0775461 -16 31 C-19.94643486 26.50922929 -20.20229659 22.55148157 -20.3125 16.6875 C-20.34988281 15.39199219 -20.38726562 14.09648437 -20.42578125 12.76171875 C-19.83955545 7.58249444 -17.78522467 4.74818681 -14.1171875 1.15625 C-9.76568508 -1.22021626 -4.78283347 -0.67868855 0 0 Z " fill="#5A6B77" transform="translate(253,162)"/>
<path d="M0 0 C2.64 0 5.28 0 8 0 C10.17241915 5.60624296 12.03027288 11.22223535 13.6875 17 C13.91244141 17.77472656 14.13738281 18.54945313 14.36914062 19.34765625 C14.91553367 21.23096846 15.45816894 23.11537024 16 25 C17.87323557 22.19014664 18.59853237 20.34525058 19.47265625 17.1484375 C19.73240234 16.21515625 19.99214844 15.281875 20.25976562 14.3203125 C20.52466797 13.34835938 20.78957031 12.37640625 21.0625 11.375 C21.59211616 9.44450465 22.12451771 7.51477055 22.66015625 5.5859375 C22.89355713 4.7304834 23.12695801 3.8750293 23.36743164 2.99365234 C24 1 24 1 25 0 C27.64 0 30.28 0 33 0 C33 11.22 33 22.44 33 34 C30.525 34.495 30.525 34.495 28 35 C27.505 22.625 27.505 22.625 27 10 C24.73785022 17.52324789 24.73785022 17.52324789 22.48266602 25.04858398 C22.20092529 25.98001221 21.91918457 26.91144043 21.62890625 27.87109375 C21.34088135 28.82943115 21.05285645 29.78776855 20.75610352 30.77514648 C20 33 20 33 19 34 C17.33382885 34.04063832 15.66611905 34.042721 14 34 C10.88752909 26.1369156 8.49073476 18.07805867 6 10 C5.67 18.25 5.34 26.5 5 35 C3.35 34.67 1.7 34.34 0 34 C0 22.78 0 11.56 0 0 Z " fill="#617272" transform="translate(130,203)"/>
<path d="M0 0 C2.64 0 5.28 0 8 0 C9.17347102 3.76875019 10.33760333 7.54032084 11.5 11.3125 C11.83386719 12.38435547 12.16773438 13.45621094 12.51171875 14.56054688 C12.98544922 16.10258789 12.98544922 16.10258789 13.46875 17.67578125 C13.76201172 18.62364502 14.05527344 19.57150879 14.35742188 20.5480957 C15 23 15 23 15 26 C15.66 26 16.32 26 17 26 C17.08636719 25.46375 17.17273438 24.9275 17.26171875 24.375 C18.75997224 16.01776954 21.38060626 8.05813494 24 0 C26.64 0 29.28 0 32 0 C32 11.22 32 22.44 32 34 C30.35 34 28.7 34 27 34 C26.505 22.615 26.505 22.615 26 11 C23.69 18.59 21.38 26.18 19 34 C17.02 34 15.04 34 13 34 C12.20442625 31.66793649 11.41348904 29.33445914 10.625 27 C10.40328125 26.35160156 10.1815625 25.70320313 9.953125 25.03515625 C9.73398438 24.38417969 9.51484375 23.73320312 9.2890625 23.0625 C9.09006348 22.47597656 8.89106445 21.88945312 8.68603516 21.28515625 C7.66719008 17.8914232 6.8593934 14.43757361 6 11 C5.67 18.59 5.34 26.18 5 34 C3.35 34 1.7 34 0 34 C0 22.78 0 11.56 0 0 Z " fill="#596A77" transform="translate(170,162)"/>
<path d="M0 0 C1.65 0 3.3 0 5 0 C7.27628663 8.28745132 9.48565898 16.53164559 11 25 C11.25394531 23.94941406 11.50789062 22.89882813 11.76953125 21.81640625 C13.5735804 14.43140971 15.44014513 7.16759364 18 0 C19.65 0 21.3 0 23 0 C24.98 8.25 26.96 16.5 29 25 C29.598125 22.73125 30.19625 20.4625 30.8125 18.125 C32.42446187 12.04618776 34.13441464 6.00661952 36 0 C37.32 0 38.64 0 40 0 C39.32425641 6.97705255 37.73473764 13.5915212 36 20.375 C35.72671875 21.46683594 35.4534375 22.55867188 35.171875 23.68359375 C33.14074248 31.71851504 33.14074248 31.71851504 32 34 C30.02 34 28.04 34 26 34 C24.02 26.74 22.04 19.48 20 12 C18.39693988 18.49130416 18.39693988 18.49130416 16.79907227 24.98388672 C16.59854248 25.79100098 16.3980127 26.59811523 16.19140625 27.4296875 C15.98717041 28.25710449 15.78293457 29.08452148 15.57250977 29.93701172 C15 32 15 32 14 34 C12.02 34 10.04 34 8 34 C4.70349081 22.74235596 1.93908537 11.57145252 0 0 Z " fill="#5A6B77" transform="translate(206,243)"/>
<path d="M0 0 C15 0 15 0 21 4 C22.60111899 7.20223797 22.49827144 10.52538714 22 14 C20.125 17 20.125 17 18 19 C17.34 19 16.68 19 16 19 C16.5775 19.99902344 17.155 20.99804688 17.75 22.02734375 C18.50011259 23.33066437 19.25010648 24.63405332 20 25.9375 C20.3815625 26.59685547 20.763125 27.25621094 21.15625 27.93554688 C24 32.88671875 24 32.88671875 24 34 C21.25390625 34.40234375 21.25390625 34.40234375 18 34 C16.31460231 31.80867823 15.15572353 29.99131726 13.9375 27.5625 C12.73563355 25.21080667 11.51254161 23.19449679 10 21 C8.35 20.67 6.7 20.34 5 20 C5 24.62 5 29.24 5 34 C3.35 34 1.7 34 0 34 C0 22.78 0 11.56 0 0 Z " fill="#556780" transform="translate(322,162)"/>
<path d="M0 0 C15 0 15 0 21 3 C23.67134463 7.00701694 23.82653281 10.28876296 23 15 C20.47031526 18.28175318 18.92268669 19.69243777 15 21 C13.43881572 21.06740865 11.8749748 21.08514456 10.3125 21.0625 C8.889375 21.041875 7.46625 21.02125 6 21 C6 25.29 6 29.58 6 34 C4.02 34 2.04 34 0 34 C0 22.78 0 11.56 0 0 Z " fill="#617272" transform="translate(208,162)"/>
<path d="M0 0 C6 0 6 0 7.53564453 1.44946289 C7.89770996 2.1171167 8.25977539 2.78477051 8.6328125 3.47265625 C9.04660156 4.20806641 9.46039063 4.94347656 9.88671875 5.70117188 C10.29535156 6.48041016 10.70398438 7.25964844 11.125 8.0625 C11.54136719 8.81466797 11.95773438 9.56683594 12.38671875 10.34179688 C13.17588099 11.77045266 13.95588801 13.20423666 14.72314453 14.64477539 C16.42951553 17.79226316 18.22368532 20.89144931 20 24 C20.33 16.41 20.66 8.82 21 1 C22.65 1 24.3 1 26 1 C26 12.22 26 23.44 26 35 C24.02 35 22.04 35 20 35 C19.56917114 34.22136597 19.56917114 34.22136597 19.12963867 33.42700195 C17.8165026 31.05499613 16.50201321 28.68374289 15.1875 26.3125 C14.73568359 25.49587891 14.28386719 24.67925781 13.81835938 23.83789062 C13.37685547 23.04189453 12.93535156 22.24589844 12.48046875 21.42578125 C11.87561646 20.33390503 11.87561646 20.33390503 11.25854492 19.2199707 C9.8805509 16.78930152 8.43755493 14.39592488 7 12 C6.67 19.59 6.34 27.18 6 35 C4.02 35 2.04 35 0 35 C0 23.45 0 11.9 0 0 Z " fill="#607182" transform="translate(60,122)"/>
<path d="M0 0 C1.98 0 3.96 0 6 0 C7.96630859 2.203125 7.96630859 2.203125 9.6484375 5.25 C10.56689453 6.87421875 10.56689453 6.87421875 11.50390625 8.53125 C12.12136719 9.6759375 12.73882812 10.820625 13.375 12 C14.01566406 13.1446875 14.65632812 14.289375 15.31640625 15.46875 C16.89789446 18.3012662 18.451606 21.14925816 20 24 C20.33 16.41 20.66 8.82 21 1 C22.65 1 24.3 1 26 1 C26 12.22 26 23.44 26 35 C24.02 35 22.04 35 20 35 C15.71 27.41 11.42 19.82 7 12 C6.67 19.59 6.34 27.18 6 35 C4.02 35 2.04 35 0 35 C0 23.45 0 11.9 0 0 Z " fill="#617172" transform="translate(155,122)"/>
<path d="M0 0 C2.31 0 4.62 0 7 0 C11.29 7.59 15.58 15.18 20 23 C20.33 15.41 20.66 7.82 21 0 C22.65 0 24.3 0 26 0 C26 11.22 26 22.44 26 34 C24.02 34 22.04 34 20 34 C19.09507813 32.38931641 19.09507813 32.38931641 18.171875 30.74609375 C17.36459627 29.30988856 16.55730387 27.87369106 15.75 26.4375 C15.15638672 25.38079102 15.15638672 25.38079102 14.55078125 24.30273438 C14.15761719 23.60341797 13.76445313 22.90410156 13.359375 22.18359375 C13.00327148 21.54993896 12.64716797 20.91628418 12.28027344 20.26342773 C10.53041471 17.1698083 8.76338742 14.08592799 7 11 C6.67 18.59 6.34 26.18 6 34 C4.02 34 2.04 34 0 34 C0 22.78 0 11.56 0 0 Z " fill="#607173" transform="translate(90,162)"/>
<path d="M0 0 C1.2065625 0.0309375 1.2065625 0.0309375 2.4375 0.0625 C5.27494381 6.75957236 7.75129308 13.58678507 10.1875 20.4375 C10.50533447 21.31760742 10.82316895 22.19771484 11.15063477 23.10449219 C11.44639404 23.94399414 11.74215332 24.78349609 12.046875 25.6484375 C12.4485791 26.77838135 12.4485791 26.77838135 12.85839844 27.93115234 C13.4375 30.0625 13.4375 30.0625 13.4375 34.0625 C11.7875 34.0625 10.1375 34.0625 8.4375 34.0625 C7.7775 31.4225 7.1175 28.7825 6.4375 26.0625 C2.1475 26.0625 -2.1425 26.0625 -6.5625 26.0625 C-6.8925 28.0425 -7.2225 30.0225 -7.5625 32.0625 C-7.8925 32.7225 -8.2225 33.3825 -8.5625 34.0625 C-10.5425 34.0625 -12.5225 34.0625 -14.5625 34.0625 C-13.01805143 29.37983513 -11.46972028 24.69847948 -9.91772461 20.01831055 C-9.3899528 18.42491757 -8.86325694 16.8311678 -8.33764648 15.23706055 C-7.58337291 12.95006895 -6.82528011 10.66437483 -6.06640625 8.37890625 C-5.83095596 7.66223282 -5.59550568 6.94555939 -5.35292053 6.20716858 C-3.31125206 0.08076225 -3.31125206 0.08076225 0 0 Z " fill="#586A82" transform="translate(304.5625,161.9375)"/>
<path d="M0 0 C3.30790397 1.68402384 5.31788658 2.97682987 7.375 6.0625 C8 8 8 8 8 11 C5.6875 11.3125 5.6875 11.3125 3 11 C2.566875 10.175 2.13375 9.35 1.6875 8.5 C0.31152941 5.85202299 0.31152941 5.85202299 -1.85546875 5.5625 C-5.09361403 5.46812782 -7.25371691 5.47037975 -9.9375 7.375 C-12.16611263 10.78346638 -12.19472138 13.24491476 -12.25 17.3125 C-12.27578125 18.44300781 -12.3015625 19.57351562 -12.328125 20.73828125 C-11.9685426 24.31270151 -11.14022123 26.14810326 -9 29 C-5.03230578 30.98384711 -0.14470514 30.32630565 4 29 C4 26.69 4 24.38 4 22 C1.69 22 -0.62 22 -3 22 C-3 20.35 -3 18.7 -3 17 C0.63 17 4.26 17 8 17 C8 21.95 8 26.9 8 32 C1.59844019 35.20077991 -2.07507414 35.79293044 -9 35 C-12 33.6875 -12 33.6875 -14 32 C-14.556875 31.54625 -15.11375 31.0925 -15.6875 30.625 C-19.60583812 25.77372423 -19.47733893 20.20019811 -19.3828125 14.23828125 C-18.68904729 8.36959393 -16.07396573 4.84352509 -11.75 1 C-7.75959181 -0.45105752 -4.19218194 -0.67163478 0 0 Z " fill="#5C6D85" transform="translate(47,122)"/>
<path d="M0 0 C3.55212618 0.04573553 5.10730931 0.23678657 8.3125 1.9375 C10.613706 4.75833317 11.00499132 6.71903943 11.25 10.3125 C9.6 10.3125 7.95 10.3125 6.25 10.3125 C6.064375 9.673125 5.87875 9.03375 5.6875 8.375 C4.31029418 5.90605023 4.31029418 5.90605023 0.6875 5.5 C-0.446875 5.438125 -1.58125 5.37625 -2.75 5.3125 C-4.04633621 6.37895115 -4.04633621 6.37895115 -3.8125 8.875 C-3.791875 9.679375 -3.77125 10.48375 -3.75 11.3125 C-2.76257813 11.78300781 -1.77515625 12.25351563 -0.7578125 12.73828125 C0.536666 13.36675994 1.83092553 13.99568981 3.125 14.625 C3.77597656 14.93373047 4.42695313 15.24246094 5.09765625 15.56054688 C8.44676398 17.20057385 10.14005879 18.14758818 12.25 21.3125 C12.59061873 24.3294088 12.82212107 26.40657815 12.25 29.3125 C10.07425584 32.00355198 8.33934144 33.76782928 5.25 35.3125 C1.01339098 35.74531664 -2.66394711 35.76108706 -6.625 34.125 C-9.0732424 32.03679325 -10.39768003 30.23066415 -11.75 27.3125 C-11.75 25.9925 -11.75 24.6725 -11.75 23.3125 C-10.1 23.3125 -8.45 23.3125 -6.75 23.3125 C-5.76 25.2925 -4.77 27.2725 -3.75 29.3125 C-0.78 29.3125 2.19 29.3125 5.25 29.3125 C5.58 27.6625 5.91 26.0125 6.25 24.3125 C4.78626953 23.49845703 4.78626953 23.49845703 3.29296875 22.66796875 C2.00766633 21.9455725 0.72251813 21.22290182 -0.5625 20.5 C-1.20509766 20.14357422 -1.84769531 19.78714844 -2.50976562 19.41992188 C-8.8733643 15.82597236 -8.8733643 15.82597236 -10.75 13.3125 C-11.25 9.9375 -11.25 9.9375 -10.75 6.3125 C-8.3125 3.4375 -8.3125 3.4375 -5.75 1.3125 C-4.10962605 -0.32787395 -2.25523159 0.06338669 0 0 Z " fill="#5C6C76" transform="translate(209.75,202.6875)"/>
<path d="M0 0 C3.4375 1.625 3.4375 1.625 6 4 C6.875 7.25 6.875 7.25 7 10 C5.35 10 3.7 10 2 10 C1.67 8.68 1.34 7.36 1 6 C-2.3 6 -5.6 6 -9 6 C-8.13354748 9.85867366 -7.65007978 11.57066674 -4.28515625 13.79296875 C-3.22167969 14.25316406 -2.15820312 14.71335938 -1.0625 15.1875 C6.03298687 18.31710113 6.03298687 18.31710113 8 21 C8.53322082 25.72281301 8.69228239 27.87802509 6.1875 31.9375 C2.22671253 35.67195676 -2.1353401 35.3987001 -7.328125 35.34375 C-10 35 -10 35 -13.125 32.875 C-15.13553242 29.79218363 -15.74560763 27.64629065 -16 24 C-13.75 23.625 -13.75 23.625 -11 24 C-10.360625 24.99 -9.72125 25.98 -9.0625 27 C-8.381875 27.99 -7.70125 28.98 -7 30 C-3.64494837 30.61623397 -1.94462531 30.60943568 0.9375 28.75 C2.16353217 27.0718683 2.16353217 27.0718683 2 25.109375 C0.41750312 21.77129564 -2.70553318 20.9029747 -5.9375 19.5 C-12.58517487 16.59702732 -12.58517487 16.59702732 -14.4140625 13.96484375 C-15.27876446 11.06520983 -15.43048977 9.01342838 -15 6 C-10.48105109 0.64861314 -6.97535714 -0.91883183 0 0 Z " fill="#5B6C76" transform="translate(131,122)"/>
<path d="M0 0 C1.98 0 3.96 0 6 0 C6.01981934 0.77190674 6.03963867 1.54381348 6.06005859 2.33911133 C6.15521143 5.83058958 6.26493047 9.32146152 6.375 12.8125 C6.4059375 14.02744141 6.436875 15.24238281 6.46875 16.49414062 C6.50742188 17.65751953 6.54609375 18.82089844 6.5859375 20.01953125 C6.6173584 21.09307861 6.6487793 22.16662598 6.68115234 23.27270508 C6.81592307 26.2160765 6.81592307 26.2160765 9 29 C11.13253645 29.47687303 11.13253645 29.47687303 13.5 29.375 C14.2940625 29.38273437 15.088125 29.39046875 15.90625 29.3984375 C16.94265625 29.20121094 16.94265625 29.20121094 18 29 C20.29174077 25.56238884 20.29524047 24.07928385 20.4140625 20.01953125 C20.45273438 18.85615234 20.49140625 17.69277344 20.53125 16.49414062 C20.57765625 14.67172852 20.57765625 14.67172852 20.625 12.8125 C20.66367188 11.58595703 20.70234375 10.35941406 20.7421875 9.09570312 C20.83656103 6.06395344 20.92214549 3.03221159 21 0 C22.65 0 24.3 0 26 0 C26.0872253 4.39570794 26.14046869 8.79119271 26.1875 13.1875 C26.21263672 14.43337891 26.23777344 15.67925781 26.26367188 16.96289062 C26.27333984 18.16494141 26.28300781 19.36699219 26.29296875 20.60546875 C26.3086792 21.71043701 26.32438965 22.81540527 26.34057617 23.95385742 C25.86265486 28.22842676 24.21496536 30.83117256 21.1484375 33.78125 C17.03789938 36.11304617 12.56088344 35.70624389 8 35 C4.58605902 33.36373243 2.55265616 31.11655479 0.85986328 27.6965332 C-0.10794298 24.66149058 -0.22794444 22.22458326 -0.1953125 19.04296875 C-0.18886719 17.93115234 -0.18242187 16.81933594 -0.17578125 15.67382812 C-0.15902344 14.52333984 -0.14226562 13.37285156 -0.125 12.1875 C-0.11597656 11.01767578 -0.10695312 9.84785156 -0.09765625 8.64257812 C-0.07413732 5.76150947 -0.04126852 2.88086011 0 0 Z " fill="#5D6D75" transform="translate(168,203)"/>
<path d="M0 0 C6.93 0 13.86 0 21 0 C21 1.32 21 2.64 21 4 C16.05 4 11.1 4 6 4 C6 7.3 6 10.6 6 14 C10.29 14 14.58 14 19 14 C19 15.65 19 17.3 19 19 C14.71 19 10.42 19 6 19 C6 22.3 6 25.6 6 29 C10.95 29 15.9 29 21 29 C21 30.65 21 32.3 21 34 C14.07 34 7.14 34 0 34 C0 22.78 0 11.56 0 0 Z " fill="#617173" transform="translate(249,243)"/>
<path d="M0 0 C6.93 0 13.86 0 21 0 C21 1.65 21 3.3 21 5 C16.05 5 11.1 5 6 5 C6 7.97 6 10.94 6 14 C10.29 14 14.58 14 19 14 C19 15.65 19 17.3 19 19 C14.71 19 10.42 19 6 19 C6 22.63 6 26.26 6 30 C10.95 30 15.9 30 21 30 C21 31.32 21 32.64 21 34 C14.07 34 7.14 34 0 34 C0 22.78 0 11.56 0 0 Z " fill="#607073" transform="translate(145,162)"/>
<path d="M0 0 C3.33761045 2.15090451 4.73470933 3.20412799 6 7 C6.1447963 8.95475009 6.22067502 10.9151138 6.25 12.875 C6.27578125 13.90367187 6.3015625 14.93234375 6.328125 15.9921875 C5.85146422 20.36157798 4.0628387 22.9371613 1 26 C-2.3125 26.4375 -2.3125 26.4375 -6 26 C-9.47848452 23.27770776 -11.21964504 21.30377584 -12 17 C-12.48733763 12.15858023 -12.86492262 7.64414699 -10.125 3.4375 C-6.90878306 -0.25169002 -4.82042048 -0.47259024 0 0 Z " fill="#FBFB0C" transform="translate(250,166)"/>
<path d="M0 0 C6.93 0 13.86 0 21 0 C21 1.32 21 2.64 21 4 C16.05 4 11.1 4 6 4 C6 7.3 6 10.6 6 14 C10.29 14 14.58 14 19 14 C19 15.32 19 16.64 19 18 C14.71 18 10.42 18 6 18 C6 21.63 6 25.26 6 29 C10.95 29 15.9 29 21 29 C21 30.65 21 32.3 21 34 C14.07 34 7.14 34 0 34 C0 22.78 0 11.56 0 0 Z " fill="#5F6F74" transform="translate(92,123)"/>
<path d="M0 0 C6.6 0 13.2 0 20 0 C20 1.32 20 2.64 20 4 C15.05 4 10.1 4 5 4 C5 7.3 5 10.6 5 14 C9.62 14 14.24 14 19 14 C19 15.65 19 17.3 19 19 C14.71 19 10.42 19 6 19 C6 22.3 6 25.6 6 29 C10.95 29 15.9 29 21 29 C21 30.65 21 32.3 21 34 C14.07 34 7.14 34 0 34 C0 22.78 0 11.56 0 0 Z " fill="#5C6D82" transform="translate(274,243)"/>
<path d="M0 0 C3.88791449 0.4574017 5.41315497 1.67992197 8.1875 4.375 C9.64980215 7.29960429 9.39658727 9.93152824 9.4375 13.1875 C9.46328125 14.41082031 9.4890625 15.63414062 9.515625 16.89453125 C9.16623546 20.60055603 8.42319119 22.43929871 6.1875 25.375 C3.09576248 26.92086876 0.59320448 26.66859521 -2.8125 26.375 C-6.40788262 23.65416991 -8.5120936 20.49181716 -9.1484375 16.0078125 C-9.2382747 10.24026428 -8.69433094 6.94185993 -4.8125 2.375 C-2.8125 0.375 -2.8125 0.375 0 0 Z " fill="#E9F0F7" transform="translate(70.8125,165.625)"/>
<path d="M0 0 C3.125 1.625 3.125 1.625 5 4 C5.8125 7.25 5.8125 7.25 6 10 C4.35 10 2.7 10 1 10 C0.71125 9.360625 0.4225 8.72125 0.125 8.0625 C-0.82823451 5.84793921 -0.82823451 5.84793921 -3 5 C-7.17316574 4.57157247 -7.17316574 4.57157247 -10.8125 6.3125 C-13.18221915 9.67999563 -13.19031472 12.88603368 -13.25 16.875 C-13.27578125 17.90367187 -13.3015625 18.93234375 -13.328125 19.9921875 C-12.9248592 23.68879068 -11.64771279 26.35228721 -9 29 C-5.58399407 29.41692853 -5.58399407 29.41692853 -2 29 C0.33130719 26.74640305 0.97071908 25.08784275 2 22 C3.65 22 5.3 22 7 22 C5.64941654 29.36681887 5.64941654 29.36681887 2.5 32.4375 C-2.33575357 35.45984598 -5.4795717 35.06198881 -11 34 C-14.63192008 32.4998591 -15.72967576 31.45375855 -17.75 28.0625 C-20.46470545 21.41147165 -21.21508792 14.57775886 -18.875 7.6875 C-13.6471922 0.19430882 -9.02787155 -1.47029263 0 0 Z " fill="#596B83" transform="translate(48,162)"/>
<path d="M0 0 C4.20196558 1.73559448 6.05981587 3.91540184 8 8 C8 8.99 8 9.98 8 11 C5.6875 11.3125 5.6875 11.3125 3 11 C2.525625 10.195625 2.05125 9.39125 1.5625 8.5625 C0.2032528 5.73724563 0.2032528 5.73724563 -2.875 4.9375 C-6.89544574 5.01790891 -8.23553549 6.15655079 -11 9 C-12.96748016 14.90244047 -12.83660905 20.94333609 -10.5 26.6875 C-7.76701924 29.21550721 -7.27063932 29.34378866 -3.75 29.375 C-2.5125 29.25125 -1.275 29.1275 0 29 C0.99 26.69 1.98 24.38 3 22 C4.65 22 6.3 22 8 22 C7.58789699 27.25431335 6.7645482 30.2354518 3 34 C-1.97628476 35.65876159 -6.31226272 35.51930378 -11.25 34 C-15.14748174 31.16546783 -16.7539364 28.65380661 -18 24 C-18.82934825 17.92253604 -19.55727557 11.80714089 -16.49609375 6.2890625 C-11.43316297 0.43339726 -7.6143594 -0.72580549 0 0 Z " fill="#5A6C77" transform="translate(255,203)"/>
<path d="M0 0 C7.59 0 15.18 0 23 0 C23 1.65 23 3.3 23 5 C20.36 5 17.72 5 15 5 C15 14.57 15 24.14 15 34 C13.02 34 11.04 34 9 34 C9 24.43 9 14.86 9 5 C6.03 5 3.06 5 0 5 C0 3.35 0 1.7 0 0 Z " fill="#647470" transform="translate(119,162)"/>
<path d="M0 0 C2.7265625 -0.40625 2.7265625 -0.40625 6 0 C7.81896996 2.21439822 9.05036585 4.02082091 10.375 6.5 C10.72949219 7.12003906 11.08398438 7.74007812 11.44921875 8.37890625 C12.31961604 9.90798257 13.16255124 11.45263275 14 13 C16.31 8.71 18.62 4.42 21 0 C22.98 0 24.96 0 27 0 C19 16 19 16 17.90429688 18.02734375 C16.52571677 21.03461352 16.55731848 23.96826743 16.375 27.25 C16.30023438 28.51328125 16.22546875 29.7765625 16.1484375 31.078125 C16.09945313 32.04234375 16.05046875 33.0065625 16 34 C14.35 34 12.7 34 11 34 C11.04382813 33.12601563 11.08765625 32.25203125 11.1328125 31.3515625 C11.10870086 19.85030897 6.97071118 12.13854084 0.90209961 2.52783203 C0 1 0 1 0 0 Z " fill="#576981" transform="translate(344,162)"/>
<path d="M0 0 C0.87011719 0.12761719 1.74023438 0.25523437 2.63671875 0.38671875 C1.7430736 1.59667129 0.84666096 2.80457986 -0.05078125 4.01171875 C-0.5921875 4.74261719 -1.13359375 5.47351563 -1.69140625 6.2265625 C-3.15029054 8.11152281 -4.68018306 9.83071003 -6.30078125 11.57421875 C-8.6042005 14.11390235 -8.6042005 14.11390235 -8.3046875 16.6796875 C-7.0567195 20.2682428 -4.86004238 22.73060427 -2.36328125 25.51171875 C2.51784802 31.03010657 2.51784802 31.03010657 3.63671875 34.38671875 C0.54296875 34.8671875 0.54296875 34.8671875 -3.36328125 34.38671875 C-6.02942104 32.18488115 -7.88969334 29.51968207 -9.86328125 26.69921875 C-10.68699219 25.61737305 -10.68699219 25.61737305 -11.52734375 24.51367188 C-15.30284363 19.31998799 -15.30284363 19.31998799 -15.53125 15.79296875 C-13.84520389 12.31937542 -11.66235684 9.51289899 -9.17578125 6.57421875 C-8.70591797 5.97673828 -8.23605469 5.37925781 -7.75195312 4.76367188 C-5.23257793 1.75623218 -3.96748174 0.45619128 0 0 Z " fill="#596A83" transform="translate(320.36328125,242.61328125)"/>
<path d="M0 0 C1.65 0 3.3 0 5 0 C5 11.55 5 23.1 5 35 C3.35 35 1.7 35 0 35 C0 23.45 0 11.9 0 0 Z " fill="#56677A" transform="translate(227,203)"/>
<path d="M0 0 C1.65 0 3.3 0 5 0 C5 11.22 5 22.44 5 34 C3.35 34 1.7 34 0 34 C0 22.78 0 11.56 0 0 Z " fill="#52647D" transform="translate(299,243)"/>
<path d="M0 0 C1.65 0 3.3 0 5 0 C5 11.22 5 22.44 5 34 C3.35 34 1.7 34 0 34 C0 22.78 0 11.56 0 0 Z " fill="#576879" transform="translate(144,123)"/>
<path d="M0 0 C8.625 -0.25 8.625 -0.25 12 2 C11.6875 5.375 11.6875 5.375 11 9 C7.91111478 11.05925681 7.29064073 11.2390374 3.8125 11.125 C1.9253125 11.063125 1.9253125 11.063125 0 11 C0 7.37 0 3.74 0 0 Z " fill="#E7EFF5" transform="translate(327,167)"/>
<path d="M0 0 C1.423125 -0.061875 2.84625 -0.12375 4.3125 -0.1875 C5.51326172 -0.23970703 5.51326172 -0.23970703 6.73828125 -0.29296875 C9 0 9 0 10.8046875 1.3203125 C12 3 12 3 11.8125 6.0625 C11 9 11 9 9 11 C5.98173347 11.27240673 3.03629378 11.08675125 0 11 C0 7.37 0 3.74 0 0 Z " fill="#FBFC0C" transform="translate(214,167)"/>
<path d="M0 0 C6.8359375 -0.1953125 6.8359375 -0.1953125 9 0 C11 2 11 2 11.3125 5.5 C11.1578125 7.2325 11.1578125 7.2325 11 9 C7.91111478 11.05925681 7.29064073 11.2390374 3.8125 11.125 C1.9253125 11.063125 1.9253125 11.063125 0 11 C0 7.37 0 3.74 0 0 Z " fill="#FAFB0C" transform="translate(272,167)"/>
<path d="M0 0 C2.31005869 2.31005869 2.72174103 3.83083657 3.625 6.9375 C3.88539063 7.81277344 4.14578125 8.68804687 4.4140625 9.58984375 C5 12 5 12 5 15 C2.03 15 -0.94 15 -4 15 C-2.91266548 9.87399439 -1.77362508 4.94081272 0 0 Z " fill="#DCE5ED" transform="translate(304,169)"/>
</svg>
